# xmcd CD database file
#
# Track frame offsets:
#	150
#	16841
#	36603
#	52124
#	75840
#	92680
#	109691
#	118274
#	136706
#	149534
#	172436
#
# Disc length: 2510 seconds
#
# Revision: 7
# Processed by: cddbd v1.5.2PL0 Copyright (c) Steve Scherf et al.
# Submitted via: CDex 1.70beta2
#
DISCID=9809cc0b
DTITLE=Garth Brooks - The Lost Sessions
DYEAR=2005
DGENRE=Country
TTITLE0=Fishin' In The Dark - Garth Brooks
TTITLE1=That Girl Is A Cowboy - Garth Brooks
TTITLE2=Good Ride Cowboy - Garth Brooks
TTITLE3=For A Minute There - Garth Brooks
TTITLE4=Please Operator (Could You Trace This Call) - Garth Brooks
TTITLE5=I'd Rather Have Nothing - Garth Brooks
TTITLE6=American Dream - Garth Brooks
TTITLE7=I'll Be The Wind - Garth Brooks
TTITLE8=My Baby No Esta Aqui - Garth Brooks
TTITLE9=Allison Miranda - Garth Brooks
TTITLE10=Last Night I Had The Strangest Dream - Garth Brooks
EXTD=YEAR: 2005
EXTT0=
EXTT1=
EXTT2=
EXTT3=
EXTT4=
EXTT5=
EXTT6=
EXTT7=
EXTT8=
EXTT9=
EXTT10=
PLAYORDER=
